<svg width="100" height="100" fill="none" xmlns="http://www.w3.org/2000/svg"><path fill-rule="evenodd" clip-rule="evenodd" d="M90.391 49.146c-10.948 8.081-26.829 12.36-40.496 12.36A73.288 73.288 0 01.452 42.636c-1.03-.907-.142-2.172 1.094-1.466a99.575 99.575 0 0049.497 13.132 98.476 98.476 0 0037.753-7.729c1.86-.77 3.408 1.23 1.595 2.573z" fill="#F90"/><path fill-rule="evenodd" clip-rule="evenodd" d="M94.947 43.942c-1.4-1.766-9.259-.847-12.79-.423-1.072.129-1.236-.807-.271-1.484 6.269-4.403 16.54-3.131 17.735-1.66 1.195 1.472-.318 11.773-6.192 16.7-.907.753-1.766.352-1.36-.648 1.318-3.302 4.279-10.69 2.878-12.485z" fill="#F90"/></svg>