<svg height="800" preserveAspectRatio="xMidYMid" viewBox="0 0 256 256" width="800" xmlns="http://www.w3.org/2000/svg"><path d="m168.361 123.454v-28.821l-10.727 5.394 10.727 23.44zm26.599-20.005 44.519-44.507-71.118 35.691zm-26.599 25.85-8.992 24.189.025-.025 20.38-20.38 12.576 25.038h62.938z" fill="#c9ebec"/><path d="m168.361 94.633v28.821h86.927l-60.328-20.005z" fill="#00868c"/><path d="m168.361 123.454v5.845l86.927 28.822v-34.667z" fill="#00b3bb"/><path d="m131.946 168.273h28.66l-8.817 26.599 44.557 44.569-41.073-81.857z" fill="#c9ebec"/><path d="m159.394 153.463 61.453 61.465-28.497-56.807-12.576-25.038z" fill="#00868c"/><path d="m159.394 153.463-.025.025-4.096 4.096 41.073 81.857 24.501-24.513z" fill="#00b3bb"/><path d="m101.751 159.269.025.038 20.38 20.38-25.038 12.563v62.938l28.834-86.915z" fill="#c9ebec"/><path d="m131.946 168.273h-.162v86.915l20.005-60.316 8.817-26.599z" fill="#00868c"/><path d="m131.784 168.273h-5.832l-28.834 86.915h34.666z" fill="#00b3bb"/><path d="m60.316 151.739-44.506 44.519 71.105-35.69zm26.599-20.005v28.834l10.74-5.395z" fill="#c9ebec"/><path d="m101.776 159.307-61.465 61.452 56.807-28.509 25.038-12.563z" fill="#00868c"/><path d="m101.776 159.307-.025-.038-4.096-4.096-10.74 5.395-71.105 35.69 24.501 24.501z" fill="#00b3bb"/><path d="m95.919 101.701-.025.037-20.393 20.38-12.562-25.038h-62.939l86.915 28.822z" fill="#c9ebec"/><path d="m86.915 160.568v-28.834h-86.915l60.316 20.005z" fill="#00868c"/><path d="m86.915 131.734v-5.832l-86.915-28.822v34.654z" fill="#00b3bb"/><path d="m123.342 86.928h-28.672l8.829-26.599-44.557-44.569 41.073 81.845z" fill="#c9ebec"/><path d="m95.894 101.738-61.465-61.465 28.51 56.807 12.562 25.038z" fill="#00868c"/><path d="m95.894 101.738.025-.037 4.096-4.096-41.073-81.845-24.513 24.513z" fill="#00b3bb"/><path d="m153.538 95.919-.038-.025-20.38-20.38 25.038-12.563v-62.939l-28.822 86.916z" fill="#c9ebec"/><path d="m123.342 86.928h.162v-86.916l-20.005 60.317-8.829 26.599z" fill="#00868c"/><path d="m123.504 86.928h5.832l28.822-86.916h-34.654z" fill="#00b3bb"/><path d="m153.5 95.894 61.465-61.453-56.807 28.51-25.038 12.563z" fill="#00868c"/><path d="m153.5 95.894.038.025 4.096 4.108 10.727-5.394 71.118-35.691-24.514-24.501z" fill="#00b3bb"/></svg>