<svg width="800" height="800" viewBox="0 0 256 256" xmlns="http://www.w3.org/2000/svg" preserveAspectRatio="xMidYMid"><path fill="#C9EBEC" d="M168.361 123.454V94.633l-10.727 5.394 10.727 23.44zm26.599-20.005l44.519-44.507-71.118 35.691zm-26.599 25.85l-8.992 24.189.025-.025 20.38-20.38 12.576 25.038h62.938z"/><path fill="#00868C" d="M168.361 94.633v28.821h86.927l-60.328-20.005-26.599-8.816z"/><path fill="#00B3BB" d="M168.361 123.454v5.845l86.927 28.822v-34.667z"/><path fill="#C9EBEC" d="M131.946 168.273h28.66l-8.817 26.599 44.557 44.569-41.073-81.857z"/><path fill="#00868C" d="M159.394 153.463l61.453 61.465-28.497-56.807-12.576-25.038z"/><path fill="#00B3BB" d="M159.394 153.463l-.025.025-4.096 4.096 41.073 81.857 24.501-24.513z"/><path fill="#C9EBEC" d="M101.751 159.269l.025.038 20.38 20.38-25.038 12.563v62.938l28.834-86.915z"/><path fill="#00868C" d="M131.946 168.273h-.162v86.915l20.005-60.316 8.817-26.599z"/><path fill="#00B3BB" d="M131.784 168.273h-5.832l-28.834 86.915h34.666z"/><path fill="#C9EBEC" d="M60.316 151.739L15.81 196.258l71.105-35.69zm26.599-20.005v28.834l10.74-5.395-10.74-23.439z"/><path fill="#00868C" d="M101.776 159.307l-61.465 61.452 56.807-28.509 25.038-12.563z"/><path fill="#00B3BB" d="M101.776 159.307l-.025-.038-4.096-4.096-10.74 5.395-71.105 35.69 24.501 24.501z"/><path fill="#C9EBEC" d="M95.919 101.701l-.025.037-20.393 20.38L62.939 97.08H0l86.915 28.822z"/><path fill="#00868C" d="M86.915 160.568v-28.834H0l60.316 20.005 26.599 8.829z"/><path fill="#00B3BB" d="M86.915 131.734v-5.832L0 97.08v34.654z"/><path fill="#C9EBEC" d="M123.342 86.928H94.67l8.829-26.599L58.942 15.76l41.073 81.845z"/><path fill="#00868C" d="M95.894 101.738L34.429 40.273l28.51 56.807 12.562 25.038z"/><path fill="#00B3BB" d="M95.894 101.738l.025-.037 4.096-4.096L58.942 15.76 34.429 40.273z"/><path fill="#C9EBEC" d="M153.538 95.919l-.038-.025-20.38-20.38 25.038-12.563V.012l-28.822 86.916z"/><path fill="#00868C" d="M123.342 86.928h.162V.012l-20.005 60.317-8.829 26.599z"/><path fill="#00B3BB" d="M123.504 86.928h5.832L158.158.012h-34.654z"/><path fill="#00868C" d="M153.5 95.894l61.465-61.453-56.807 28.51-25.038 12.563z"/><path fill="#00B3BB" d="M153.5 95.894l.038.025 4.096 4.108 10.727-5.394 71.118-35.691-24.514-24.501z"/></svg>