<svg viewBox="0 0 576 512" xmlns="http://www.w3.org/2000/svg"><path d="m80.3 44c-10.5 25.9-16.3 54.2-16.3 84s5.8 58.1 16.3 84c6.6 16.4-1.3 35-17.7 41.7s-35-1.3-41.7-17.7c-13.5-33.4-20.9-69.9-20.9-108s7.4-74.6 20.9-108c6.7-16.4 25.3-24.3 41.7-17.7s24.3 25.3 17.7 41.7zm474.8-24c13.5 33.4 20.9 69.9 20.9 108s-7.4 74.6-20.9 108c-6.6 16.4-25.3 24.3-41.7 17.7s-24.3-25.3-17.7-41.7c10.5-25.9 16.3-54.2 16.3-84s-5.8-58.1-16.3-84c-6.6-16.4 1.3-35 17.7-41.7s35 1.3 41.7 17.7zm-203.1 108c0 23.7-12.9 44.4-32 55.4v296.6c0 17.7-14.3 32-32 32s-32-14.3-32-32v-296.6c-19.1-11.1-32-31.7-32-55.4 0-35.3 28.7-64 64-64s64 28.7 64 64zm-181.4-51.2c-6.8 15.6-10.6 32.9-10.6 51.2s3.8 35.6 10.6 51.2c7.1 16.2-.3 35.1-16.5 42.1s-35.1-.3-42.1-16.5c-10.3-23.6-16-49.6-16-76.8s5.7-53.2 16-76.8c7.1-16.2 25.9-23.6 42.1-16.5s23.6 25.9 16.5 42.1zm293.4-25.6c10.3 23.6 16 49.6 16 76.8s-5.7 53.2-16 76.8c-7.1 16.2-25.9 23.6-42.1 16.5s-23.6-25.9-16.5-42.1c6.8-15.6 10.6-32.9 10.6-51.2s-3.8-35.6-10.6-51.2c-7.1-16.2.3-35.1 16.5-42.1s35.1.3 42.1 16.5z" fill="#fff"/></svg>