<svg width="27" height="32" fill="none" xmlns="http://www.w3.org/2000/svg"><path d="M13.376 32c-.46 0-.92-.129-1.33-.386L1.33 25.024A2.881 2.881 0 010 22.577V9.422c0-1.03.508-1.956 1.33-2.471L12.046.386a2.484 2.484 0 012.66 0l10.715 6.565a2.881 2.881 0 011.33 2.446v13.18c0 1.005-.507 1.957-1.33 2.446l-10.715 6.59c-.411.258-.87.387-1.33.387zm0-30.97c-.29 0-.58.077-.847.231L1.814 7.852c-.532.309-.846.927-.846 1.545v13.18c0 .644.314 1.236.846 1.545l10.715 6.59a1.663 1.663 0 001.693 0l10.716-6.59c.532-.309.846-.927.846-1.544V9.422c0-.643-.314-1.235-.846-1.544L14.222 1.26a1.682 1.682 0 00-.846-.231z" fill="#F90"/><path d="M13.303 31.871c-.266 0-.556-.077-.798-.231L7.28 28.422a1.732 1.732 0 01-.798-1.468v-6.41c0-.592.315-1.159.798-1.468l5.225-3.218a1.45 1.45 0 011.572 0l5.225 3.218c.483.31.798.85.798 1.468v6.41c0 .592-.315 1.159-.798 1.468l-5.225 3.218a1.433 1.433 0 01-.774.231zm0-15.189a.707.707 0 00-.314.078l-5.225 3.217a.68.68 0 00-.314.567v6.41c0 .232.12.463.314.566l5.225 3.218a.521.521 0 00.604 0l5.25-3.192a.68.68 0 00.314-.566v-6.436c0-.232-.121-.463-.315-.567l-5.224-3.218a.708.708 0 00-.315-.077z" fill="#F90"/><path d="M13.4 23.736c-.266 0-.556-.077-.798-.232l-5.225-3.192a1.732 1.732 0 01-.798-1.467v-6.41c0-.593.315-1.159.798-1.468l5.225-3.218a1.45 1.45 0 011.572 0l5.225 3.218c.483.309.798.85.798 1.467v6.41c0 .593-.315 1.16-.798 1.468l-5.2 3.218a1.758 1.758 0 01-.799.206zm0-15.189a.708.708 0 00-.314.077L7.86 11.868a.68.68 0 00-.314.566v6.41c0 .232.12.464.314.567l5.225 3.218a.521.521 0 00.604 0l5.225-3.218a.68.68 0 00.314-.566v-6.41c0-.232-.12-.464-.314-.567l-5.2-3.218a.754.754 0 00-.315-.103z" fill="#F90"/><path d="M19.64 20.338a.465.465 0 01-.41-.258.517.517 0 01.168-.695l5.66-3.475a.92.92 0 00.436-.798V8.985a.92.92 0 00-.436-.798l-4.982-3.064a.876.876 0 00-.871 0l-4.983 3.064a.92.92 0 00-.435.798v6.95c0 .284-.218.516-.484.516s-.484-.232-.484-.515V8.985c0-.695.363-1.339.92-1.7l4.982-3.063a1.698 1.698 0 011.838 0l4.983 3.064c.556.36.92 1.004.92 1.699v6.101a2.04 2.04 0 01-.92 1.7l-5.66 3.475a.447.447 0 01-.242.077z" fill="#F90"/><path d="M6.99 20.338a.447.447 0 01-.242-.077l-5.635-3.476a2.04 2.04 0 01-.92-1.699V8.985c0-.695.363-1.339.92-1.7l4.982-3.063a1.698 1.698 0 011.839 0l5.635 3.501a.507.507 0 01.17.695c-.146.258-.436.335-.654.18l-5.66-3.475a.876.876 0 00-.87 0L1.596 8.187a.92.92 0 00-.435.798v6.101c0 .335.17.644.435.798l5.66 3.476a.507.507 0 01.17.695.506.506 0 01-.436.283zM19.81 12.357a.465.465 0 01-.412-.257.517.517 0 01.17-.695l5.66-3.476a.454.454 0 01.653.18.517.517 0 01-.17.696l-5.66 3.5a.812.812 0 01-.241.052z" fill="#F90"/><path d="M6.797 12.203a.446.446 0 01-.242-.077L.919 8.675a.507.507 0 01-.17-.695c.146-.258.436-.335.654-.18l5.636 3.45a.507.507 0 01.169.694c-.097.155-.266.258-.411.258zM13.182 31.64c-.266 0-.483-.232-.483-.515V23.35c0-.283.217-.515.483-.515s.484.232.484.515v7.775c0 .283-.218.515-.484.515z" fill="#F90"/></svg>