<svg width="16" height="16" viewBox="0 0 16 16" fill="none" xmlns="http://www.w3.org/2000/svg">
<rect x="1.5" y="1.5" width="13" height="13" rx="3.5" stroke="white"/>
<path d="M6.85527 10.0245C6.91256 9.91553 7.02714 9.50815 7.07298 9.38192C7.75474 7.39095 9.45055 4.26393 12 4C11.238 4.55082 10.1209 5.69261 9.49065 6.94341C8.80889 8.30324 8.22452 10.2368 8.07557 10.6729C7.96672 10.977 7.85213 11.3786 7.7662 11.6081C7.64016 11.9467 7.15891 11.9467 6.71777 11.9467C6.31101 11.9467 6.00163 11.895 5.92143 11.6713C5.84695 11.4647 5.72664 11.1549 5.54904 10.8737C5.148 10.2311 4.63238 9.66307 4.03655 9.07783C3.98499 9.02619 3.99072 8.99176 4.03655 8.94586C4.22561 8.74504 4.62092 8.49832 4.86154 8.35488C5.05633 8.24012 5.26258 8.22291 5.47456 8.2975C5.73237 8.3893 5.9558 8.54422 6.12195 8.75652C6.53444 9.25569 6.83808 9.88684 6.861 10.0131V10.0245H6.85527Z" fill="white" stroke="white" stroke-width="0.3"/>
</svg>
