<svg width="16" height="16" fill="none" xmlns="http://www.w3.org/2000/svg"><path fill-rule="evenodd" clip-rule="evenodd" d="M9.71.132l-.132.131v2.455l.163.135.163.136.263-.066.263-.066.066-.248c.037-.137.067-.684.068-1.216l.002-.968-.114-.213L10.338 0h-.248c-.137 0-.308.06-.38.132zM6.725.656l-.217.217.071.195c.04.107.314.556.61.997l.537.802.172.066L8.07 3l.178-.11.177-.112.036-.244.036-.243-.566-.862C7.446.689 7.208.439 6.99.439c-.026 0-.144.098-.263.217zm5.96.03c-.122.136-.427.553-.677.927l-.455.68v.456l.27.124.272.123.187-.153c.252-.207 1.247-1.737 1.247-1.918 0-.133-.402-.486-.554-.486-.037 0-.167.111-.29.247zM4.143 3.93a3.08 3.08 0 00-.538.445l-.209.235-.137-.114c-.076-.063-.3-.16-.499-.217L2.4 4.175l-.408.11-.408.11-.334.38-.334.38-.072.384-.072.384.11.314.11.314-.369.294-.369.294-.12.447-.12.447.067.307.068.307.388.454.388.453-.328.307-.329.307-.133.446L0 11.06l.124.377.125.377 1.618 1.6 1.618 1.6.574.29c.316.157.858.36 1.203.451l.629.164.718-.007.718-.006.723-.189.722-.188.634-.382.634-.381.51-.556a5.387 5.387 0 001.275-2.302l.168-.646V6.126l-.184-.388-.185-.388-.485-.215-.486-.215-.362.068-.362.068-.286.225c-.39.307-.527.595-.604 1.269l-.065.572-1.736-1.657L5.503 3.81l-.515-.044-.515-.045-.33.21zm3.071 2.877L9.31 8.893h.573l.067-.174c.037-.096.067-.687.067-1.315V6.263l.267-.175.267-.175.234.125.234.125-.035 2.716-.034 2.716-.41.829-.41.829-.504.464-.503.464-.695.326-.696.325-.751.063-.752.063-.693-.178-.693-.178-.478-.28-.477-.279-1.396-1.34-1.396-1.34v-.641l.2-.147c.11-.08.267-.145.349-.145h.15l.811.768c.894.846.944.868 1.265.546l.222-.222-.125-.244c-.07-.135-.762-.891-1.54-1.681C.915 8.06.928 8.078 1.185 7.709l.171-.244h.472l1.496 1.482L4.82 10.43h.216c.276 0 .48-.204.48-.479v-.215L3.649 7.85C1.753 5.933 1.696 5.856 1.897 5.482l.113-.212h.691L4.524 7.08l1.823 1.812h.478l.114-.213c.171-.32.207-.27-1.259-1.764L4.308 5.518V5.32c0-.109.082-.288.182-.398l.181-.201h.447l2.096 2.086zm6.896-1.79c-.133.026-.388.183-.565.348l-.323.302-.12.432-.12.433v1.049l-.001 1.048.132.132.131.132h.62l.108-.282.107-.282V6.156l.211-.114.212-.113.176.068a.652.652 0 01.282.266l.107.2-.001 2.01v2.011l-.115.704-.114.704-.28.57-.279.57-.456.472c-.604.622-1.138.966-1.849 1.19l-.584.185-.631.492-.631.493.5.034.502.033.576-.12a6.875 6.875 0 001.255-.44l.678-.32.567-.527.567-.526.409-.628.409-.629.205-.744.205-.744V5.966l-.304-.398-.304-.399-.41-.114c-.42-.117-.457-.118-.872-.038z" fill="#fff"/></svg>