<svg height="16" viewBox="0 0 576 512" width="18" xmlns="http://www.w3.org/2000/svg"><path d="m290.8 48.6 78.4 29.7-81.2 31.2-81.2-31.2 78.4-29.7c1.8-.7 3.8-.7 5.7 0zm-154.8 43.9v112.2c-1.3.4-2.6.8-3.9 1.3l-96 36.4c-21.7 8.2-36.1 29.1-36.1 52.3v119.2c0 22.2 13.1 42.3 33.5 51.3l96 42.2c14.4 6.3 30.7 6.3 45.1 0l113.4-49.9 113.5 49.9c14.4 6.3 30.7 6.3 45.1 0l96-42.2c20.3-8.9 33.5-29.1 33.5-51.3v-119.2c0-23.3-14.4-44.1-36.1-52.4l-96-36.4c-1.3-.5-2.6-.9-3.9-1.3v-112.1c0-23.3-14.4-44.1-36.1-52.4l-96-36.4c-12.8-4.8-26.9-4.8-39.7 0l-96 36.4c-21.9 8.3-36.3 29.2-36.3 52.4zm256 118.1-82.4 31.2v-89.2l82.4-31.6zm-237.2 40.3 78.4 29.7-81.2 31.1-81.2-31.1 78.4-29.7c1.8-.7 3.8-.7 5.7 0zm18.8 204.4v-100.5l82.4-31.6v95.9zm247.6-204.4c1.8-.7 3.8-.7 5.7 0l78.4 29.7-81.3 31.1-81.2-31.1zm102 170.3-77.6 34.1v-100.5l82.4-31.6v90.7c0 3.2-1.9 6-4.8 7.3z" fill="#fff"/></svg>