<svg xmlns="http://www.w3.org/2000/svg" viewBox="0 0 512 512"><linearGradient id="prefix__a" gradientUnits="userSpaceOnUse" x1="256" y1="0" x2="256" y2="512"><stop offset=".201" stop-color="#90c740"/><stop offset=".349" stop-color="#669b3c"/><stop offset=".509" stop-color="#477e38"/><stop offset=".671" stop-color="#316b33"/><stop offset=".834" stop-color="#226130"/><stop offset="1" stop-color="#1d5d2f"/></linearGradient><path d="M177 180.1c-8.3 2.1-16.6 4.3-32.1 8.3C181 123 214.4 62.5 249 0c41.6 61.5 73.3 122.7 106.9 184.1-13.3 4.3-25.1-6.3-36.9 2.3 23.8 36.8 47.8 73.8 71.6 110.6-9.6 7.9-16.4-.8-23.7.4-3.5-1.8-7.4-3.5-9.9.8-.5.9 2.9 4 4.4 6.1 20.7 28.6 41.5 57.2 63.1 87.1-17.1 4-29.6-10.2-45.7-2.1 26 37.2 52.1 74.5 83.7 119.8-24.9-9.8-40.5-15.9-56.1-22.1-2.6-.2-5.3-.5-7.9-.7.9 2.5 1.7 5.1 2.6 7.6 4.2 14.6-1.9 18.2-16.2 18.1-93.6-.6-187.1-.3-279.5-.3-9.1-8.9 1.3-17.2-1.6-27.6-18.9 7.5-36.6 14.4-54.3 21.4l.5.6c4.4-30.6 30.2-48.4 44.2-73.2 8-14 18.2-26.8 27.6-40.4-14.8-14.4-27.4 5-41.8-1.1 15.5-36.1 52.9-56.4 66.7-92.9-8.6-11.4-19.7 6.5-31.1-4.7 21.9-35.7 44-71.8 66.2-107.9 2.9-1.4 6-3.5 3.3-6.7-1-1-5.3.6-8.1.9z" fill="url(#prefix__a)"/><path d="M210.7 239.3c-.1.1-.2.1-.3.2.2-.1.3-.1.3-.2.1.1 0 0 0 0z" fill="#1e7e3f"/></svg>