<svg viewBox="0 0 576 512" xmlns="http://www.w3.org/2000/svg"><path d="m3.9 22.9c6.6-14 20.6-22.9 36.1-22.9h432c15.5 0 29.5 8.9 36.1 22.9s4.6 30.5-5.2 42.5l-106.5 130.2c-80.2 16.5-140.4 87.4-140.4 172.4 0 27.4 6.3 53.4 17.5 76.5-1.6-.8-3.2-1.8-4.7-2.9l-64-48c-8.1-6-12.8-15.5-12.8-25.6v-79.1l-183-223.6c-9.7-11.9-11.8-28.5-5.1-42.4zm428.1 201.1a144 144 0 1 1 0 288 144 144 0 1 1 0-288zm59.3 107.3c6.2-6.2 6.2-16.4 0-22.6s-16.4-6.2-22.6 0l-36.7 36.7-36.7-36.7c-6.2-6.2-16.4-6.2-22.6 0s-6.2 16.4 0 22.6l36.7 36.7-36.7 36.7c-6.2 6.2-6.2 16.4 0 22.6s16.4 6.2 22.6 0l36.7-36.7 36.7 36.7c6.2 6.2 16.4 6.2 22.6 0s6.2-16.4 0-22.6l-36.7-36.7z" fill="#feffff"/></svg>