<svg width="16" height="16" viewBox="0 0 16 16" fill="none" xmlns="http://www.w3.org/2000/svg">
<rect x="1.5" y="1.5" width="13" height="13" rx="3.5" stroke="white"/>
<path fill-rule="evenodd" clip-rule="evenodd" d="M6.31909 4.23273C6.39009 3.94901 6.64504 3.75 6.93751 3.75H9.91251C10.2646 3.75 10.55 4.03542 10.55 4.3875C10.55 4.73958 10.2646 5.025 9.91251 5.025H7.43513L6.96944 6.88572C6.96159 6.91706 6.96095 6.94991 6.96764 6.98151C6.97433 7.01311 6.98814 7.04277 7.00801 7.06823C7.02788 7.0937 7.0533 7.1143 7.08232 7.12847C7.11135 7.14263 7.14322 7.15 7.17551 7.15C7.17552 7.15 7.17551 7.15 7.17551 7.15H8.00001C8.67631 7.15 9.32492 7.41866 9.80313 7.89688C10.2814 8.3751 10.55 9.0237 10.55 9.7C10.55 10.3763 10.2814 11.0249 9.80313 11.5031C9.32492 11.9813 8.67631 12.25 8.00001 12.25H6.08751C5.73543 12.25 5.45001 11.9646 5.45001 11.6125C5.45001 11.2604 5.73543 10.975 6.08751 10.975H8.00001C8.33816 10.975 8.66246 10.8407 8.90157 10.6016C9.14068 10.3625 9.27501 10.0382 9.27501 9.7C9.27501 9.36185 9.14068 9.03755 8.90157 8.79844C8.66246 8.55933 8.33816 8.425 8.00001 8.425H7.17551C6.9494 8.42499 6.72626 8.37344 6.52306 8.27426C6.31986 8.17508 6.14195 8.03089 6.00285 7.85263C5.86374 7.67437 5.76711 7.46675 5.72028 7.24555C5.67347 7.02439 5.67767 6.79546 5.73259 6.57618C5.7326 6.57613 5.73257 6.57622 5.73259 6.57618L6.31909 4.23273Z" fill="white"/>
</svg>
