<svg height="38" width="51" xmlns="http://www.w3.org/2000/svg"><path d="m20.095 22.801 1.6 1.601-4.88 4.88-1.6-1.6z" fill="#7180bc"/><path d="m44.166 14.658c0-3.955-1.398-7.332-4.195-10.129s-6.174-4.195-10.131-4.195c-3.955 0-7.331 1.398-10.128 4.195s-4.195 6.174-4.195 10.13c0 3.955 1.398 7.331 4.195 10.128s6.173 4.195 10.129 4.195c3.955 0 7.332-1.398 10.129-4.195s4.195-6.173 4.195-10.129" fill="#589fff"/><path d="m21.589 24.79c-5.596-5.597-5.596-14.667 0-20.263a14.224 14.224 0 0 1 9.188-4.163 14.287 14.287 0 0 0 -11.066 4.163c-5.596 5.596-5.596 14.666 0 20.262a14.287 14.287 0 0 0 11.066 4.164 14.224 14.224 0 0 1 -9.188-4.164z" fill="#9bc5ff"/><path d="m41.405 14.658c0-3.193-1.129-5.918-3.387-8.176s-4.983-3.387-8.176-3.387-5.919 1.129-8.177 3.387-3.386 4.983-3.386 8.176 1.128 5.919 3.386 8.177 4.984 3.386 8.177 3.386 5.918-1.128 8.176-3.386 3.387-4.984 3.387-8.177" fill="#def6fc"/><path d="m23.54 22.837c-4.52-4.52-4.52-11.838 0-16.358a11.493 11.493 0 0 1 7.244-3.347 11.529 11.529 0 0 0 -9.114 3.347c-4.52 4.52-4.52 11.838 0 16.358a11.529 11.529 0 0 0 9.114 3.347 11.532 11.532 0 0 1 -7.243-3.347z" fill="#fff"/><path d="m8.608 37.31-1.418-1.418a1.205 1.205 0 0 1 0-1.7l7.474-7.466a1.205 1.205 0 0 1 1.7 0l1.417 1.418a1.205 1.205 0 0 1 0 1.7l-7.481 7.466a1.196 1.196 0 0 1 -1.692 0z" fill="#f9c04a"/><path d="m7.673 36.382 9.173-9.173-.482-.483a1.205 1.205 0 0 0 -1.7 0l-7.474 7.474a1.205 1.205 0 0 0 0 1.7z" fill="#ffda9f"/><path d="m12.59 28.799 1.476-1.475 3.112 3.112-1.475 1.475z" fill="#def6fc"/><path d="m12.587 28.795 1.475-1.474 1.333 1.333-1.475 1.474z" fill="#fff"/><g fill="#133260"><path d="m29.842 5.819c-.869 0-1.73.126-2.553.37a.334.334 0 0 0 -.223.424.334.334 0 0 0 .423.223 8.186 8.186 0 0 1 2.36-.35.34.34 0 0 0 .342-.34.355.355 0 0 0 -.35-.327zm-5.366 1.818a8.77 8.77 0 0 0 -3.466 7.021.34.34 0 0 0 .341.342.336.336 0 0 0 .342-.342c0-2.56 1.165-4.92 3.198-6.48a.334.334 0 0 0 .06-.474.342.342 0 0 0 -.475-.067z"/><path d="m40.21 4.29c-5.715-5.715-15.022-5.715-20.737 0-5.366 5.366-5.7 13.894-.987 19.646l-2.27 2.27a1.522 1.522 0 0 0 -.706-.17c-.408 0-.794.163-1.09.453l-.595.593-1.477 1.477-5.395 5.396a1.53 1.53 0 0 0 -.453 1.091c0 .408.163.794.453 1.091l1.417 1.418a1.545 1.545 0 0 0 2.182 0l5.403-5.403 1.477-1.477.594-.594a1.538 1.538 0 0 0 .283-1.796l2.27-2.271a14.641 14.641 0 0 0 9.278 3.302 14.62 14.62 0 0 0 10.368-4.29c5.707-5.714 5.707-15.021-.015-20.736zm-30.148 32.782a.865.865 0 0 1 -1.217 0l-1.417-1.417a.865.865 0 0 1 0-1.217l5.158-5.166 2.635 2.635zm5.641-5.64-2.635-2.635 1.002-1.002 2.635 2.635zm1.833-1.834-.356.357-2.635-2.635.357-.356a.853.853 0 0 1 .608-.253c.23 0 .445.09.609.253l1.417 1.417a.881.881 0 0 1 .252.609c0 .23-.088.445-.252.608zm.334-1.84-1.128-1.128 2.182-2.182c.178.193.356.386.55.579.192.193.378.37.578.549zm21.865-3.206c-5.455 5.455-14.331 5.455-19.78 0-5.454-5.456-5.454-14.332 0-19.78a13.952 13.952 0 0 1 9.895-4.09 13.94 13.94 0 0 1 9.886 4.083c5.455 5.455 5.455 14.331 0 19.787z"/><path d="m38.258 6.242c-4.638-4.639-12.194-4.639-16.833 0-4.638 4.638-4.638 12.194 0 16.833a11.855 11.855 0 0 0 8.417 3.48c3.05 0 6.093-1.157 8.416-3.48 4.639-4.64 4.639-12.195 0-16.833zm-.475 16.358c-4.379 4.379-11.496 4.379-15.875 0-4.38-4.38-4.38-11.497 0-15.876a11.186 11.186 0 0 1 7.941-3.28c2.88 0 5.745 1.083 7.934 3.273 4.372 4.379 4.372 11.504 0 15.883z"/></g></svg>