<svg xmlns="http://www.w3.org/2000/svg" width="51" height="38"><path d="M20.095 22.801l1.6 1.601-4.88 4.88-1.6-1.6z" fill="#7180BC"/><path d="M44.166 14.658c0-3.955-1.398-7.332-4.195-10.129C37.174 1.732 33.797.334 29.84.334c-3.955 0-7.331 1.398-10.128 4.195-2.797 2.797-4.195 6.174-4.195 10.13 0 3.955 1.398 7.331 4.195 10.128 2.797 2.797 6.173 4.195 10.129 4.195 3.955 0 7.332-1.398 10.129-4.195 2.797-2.797 4.195-6.173 4.195-10.129" fill="#589FFF"/><path d="M21.589 24.79c-5.596-5.597-5.596-14.667 0-20.263A14.224 14.224 0 0130.777.364a14.287 14.287 0 00-11.066 4.163c-5.596 5.596-5.596 14.666 0 20.262a14.287 14.287 0 0011.066 4.164 14.224 14.224 0 01-9.188-4.164z" fill="#9BC5FF"/><path d="M41.405 14.658c0-3.193-1.129-5.918-3.387-8.176s-4.983-3.387-8.176-3.387c-3.193 0-5.919 1.129-8.177 3.387s-3.386 4.983-3.386 8.176c0 3.193 1.128 5.919 3.386 8.177s4.984 3.386 8.177 3.386c3.193 0 5.918-1.128 8.176-3.386s3.387-4.984 3.387-8.177" fill="#DEF6FC"/><path d="M23.54 22.837c-4.52-4.52-4.52-11.838 0-16.358a11.493 11.493 0 017.244-3.347 11.529 11.529 0 00-9.114 3.347c-4.52 4.52-4.52 11.838 0 16.358a11.529 11.529 0 009.114 3.347 11.532 11.532 0 01-7.243-3.347z" fill="#FFF"/><path d="M8.608 37.31L7.19 35.892a1.205 1.205 0 010-1.7l7.474-7.466a1.205 1.205 0 011.7 0l1.417 1.418a1.205 1.205 0 010 1.7L10.3 37.31a1.196 1.196 0 01-1.692 0z" fill="#F9C04A"/><path d="M7.673 36.382l9.173-9.173-.482-.483a1.205 1.205 0 00-1.7 0L7.19 34.2a1.205 1.205 0 000 1.7l.483.482z" fill="#FFDA9F"/><path d="M12.59 28.799l1.476-1.475 3.112 3.112-1.475 1.475z" fill="#DEF6FC"/><path d="M12.587 28.795l1.475-1.474 1.333 1.333-1.475 1.474z" fill="#FFF"/><g fill="#133260"><path d="M29.842 5.819c-.869 0-1.73.126-2.553.37a.334.334 0 00-.223.424.334.334 0 00.423.223 8.186 8.186 0 012.36-.35.34.34 0 00.342-.34.355.355 0 00-.35-.327zM24.476 7.637a8.77 8.77 0 00-3.466 7.021.34.34 0 00.341.342.336.336 0 00.342-.342c0-2.56 1.165-4.92 3.198-6.48a.334.334 0 00.06-.474.342.342 0 00-.475-.067z"/><path d="M40.21 4.29c-5.715-5.715-15.022-5.715-20.737 0-5.366 5.366-5.7 13.894-.987 19.646l-2.27 2.27a1.522 1.522 0 00-.706-.17c-.408 0-.794.163-1.09.453l-.595.593-1.477 1.477-5.395 5.396c-.29.29-.453.675-.453 1.091 0 .408.163.794.453 1.091l1.417 1.418a1.545 1.545 0 002.182 0l5.403-5.403 1.477-1.477.594-.594c.29-.29.453-.676.453-1.091 0-.252-.06-.49-.17-.705l2.27-2.271a14.641 14.641 0 009.278 3.302c3.755 0 7.51-1.432 10.368-4.29 5.707-5.714 5.707-15.021-.015-20.736zM10.062 37.072a.865.865 0 01-1.217 0l-1.417-1.417a.865.865 0 010-1.217l5.158-5.166 2.635 2.635-5.159 5.165zm5.641-5.64l-2.635-2.635 1.002-1.002 2.635 2.635-1.002 1.002zm1.833-1.834l-.356.357-2.635-2.635.357-.356a.853.853 0 01.608-.253c.23 0 .445.09.609.253l1.417 1.417a.881.881 0 01.252.609c0 .23-.088.445-.252.608zm.334-1.84l-1.128-1.128 2.182-2.182c.178.193.356.386.55.579.192.193.378.37.578.549l-2.182 2.182zm21.865-3.206c-5.455 5.455-14.331 5.455-19.78 0-5.454-5.456-5.454-14.332 0-19.78A13.952 13.952 0 0129.85.682a13.94 13.94 0 019.886 4.083c5.455 5.455 5.455 14.331 0 19.787z"/><path d="M38.258 6.242c-4.638-4.639-12.194-4.639-16.833 0-4.638 4.638-4.638 12.194 0 16.833a11.855 11.855 0 008.417 3.48c3.05 0 6.093-1.157 8.416-3.48 4.639-4.64 4.639-12.195 0-16.833zM37.783 22.6c-4.379 4.379-11.496 4.379-15.875 0-4.38-4.38-4.38-11.497 0-15.876a11.186 11.186 0 017.941-3.28c2.88 0 5.745 1.083 7.934 3.273 4.372 4.379 4.372 11.504 0 15.883z"/></g></svg>