<svg viewBox="0 0 512 512.08" xmlns="http://www.w3.org/2000/svg" xmlns:xlink="http://www.w3.org/1999/xlink"><clipPath id="a"><path d="m416.54 372.71-10.43 13.23c27.06-34.31 41.83-78.59 38.55-126.59a193.79 193.79 0 0 0 -18.43-70.35l10.44-13.23a194.19 194.19 0 0 1 18.43 70.4c3.27 47.95-11.49 92.23-38.56 126.54z"/></clipPath><clipPath id="b"><path d="m95.84 141.54 10.43-13.23c32.73-41.52 83.51-68.47 142.08-69.79a199.94 199.94 0 0 1 77.72 13.88l-10.43 13.23a199.94 199.94 0 0 0 -77.72-13.88c-58.58 1.32-109.33 28.25-142.08 69.79z"/></clipPath><clipPath id="c"><path d="m256.48 337.53-10.48 13.23c-1.74.19-3.48.31-5.3.35-40.57.92-75.64-31-78.39-71.19-.11-1.73-.15-3.46-.11-5.2l10.43-13.23c0 1.74 0 3.47.12 5.2 2.74 40.21 37.81 72.11 78.38 71.19 1.87-.04 3.61-.16 5.35-.35z"/></clipPath><clipPath id="d"><path d="m462.26 407.91-10.43 13.23c-42.44 53.81-108.19 88.73-184 90.44-138.75 3.13-258.73-105.82-268.11-243.31-4.25-62.2 14.89-119.61 50-164.1l10.42-13.23c-35.09 44.49-54.24 101.9-49.99 164.06 9.38 137.5 129.36 246.44 268.06 243.31 75.86-1.67 141.61-36.59 184.05-90.4z"/></clipPath><path d="m366.71 28.22-10.43 13.23-40.64 44.18 10.43-13.23zm89.09 73.08-10.43 13.23-137.98 150.13 10.44-13.23z" fill="#7e451c"/><g clip-path="url(#a)"><path d="m416.54 372.71-10.43 13.23c27.06-34.31 41.83-78.59 38.55-126.59a193.79 193.79 0 0 0 -18.43-70.35l10.44-13.23a194.19 194.19 0 0 1 18.43 70.4c3.27 48-11.49 92.28-38.56 126.59" fill="#81471d"/></g><g clip-path="url(#b)"><path d="m326.07 72.4-10.43 13.23a199.94 199.94 0 0 0 -77.72-13.88c-58.58 1.32-109.33 28.25-142.08 69.79l10.43-13.23c32.73-41.52 83.51-68.47 142.08-69.79a199.94 199.94 0 0 1 77.72 13.88" fill="#81471d"/></g><path d="m172.67 261.49-10.43 13.23-81.85-74.27 10.44-13.23z" fill="#7d441c"/><path d="m394.53 350.69-10.44 13.23-56.2 61.11 10.44-13.23z" fill="#7e451c"/><path d="m338.33 411.8-10.44 13.23-81.85-74.27 10.44-13.23z" fill="#7d441c"/><path d="m400.62 51.3 55.18 50-138 150.13a68 68 0 0 1 1.85 11.95 73.19 73.19 0 0 1 -1.06 18.43l75.91 68.88-56.2 61.11-81.85-74.27c-1.74.19-3.48.31-5.31.35-40.57.92-75.64-31-78.38-71.19-.12-1.73-.16-3.46-.12-5.2l-81.81-74.27 56.11-61.12 75.91 68.9a71 71 0 0 1 18.38-2.78 75 75 0 0 1 26.08 4.07z" fill="#eb8034"/><g clip-path="url(#c)"><path d="m256.48 337.53-10.48 13.23c-1.74.19-3.48.31-5.3.35-40.57.92-75.64-31-78.39-71.19-.11-1.73-.15-3.46-.11-5.2l10.43-13.23c0 1.74 0 3.47.12 5.2 2.74 40.21 37.81 72.11 78.38 71.19 1.83 0 3.57-.16 5.31-.35" fill="#81471d"/></g><g clip-path="url(#d)"><path d="m462.26 407.91-10.43 13.23c-42.44 53.81-108.19 88.73-184 90.44-138.75 3.13-258.73-105.82-268.11-243.31-4.25-62.2 14.89-119.61 50-164.1l10.42-13.23c-35.09 44.49-54.24 101.9-49.99 164.06 9.38 137.5 129.36 246.44 268.06 243.31 75.86-1.71 141.61-36.63 184.05-90.44" fill="#81471d"/></g><path d="m244.23.5a260 260 0 0 1 122.48 27.72l-40.64 44.18a199.94 199.94 0 0 0 -77.72-13.88c-107 2.41-187.87 90.3-180.63 196.33s99.87 190 206.83 187.6 187.78-90.29 180.55-196.33a194.19 194.19 0 0 0 -18.43-70.4l40.63-44.19a254.93 254.93 0 0 1 35 112.2c9.38 137.49-95.46 251.5-234.07 254.62s-258.7-105.81-268.08-243.35 95.38-251.37 234.08-254.5z" fill="#eb8034"/></svg>