<svg id="prefix__Layer_1" data-name="Layer 1" xmlns="http://www.w3.org/2000/svg" viewBox="0 0 512 512.08"><defs><clipPath id="prefix__clip-path"><path id="prefix__SVGID" class="prefix__cls-1" d="M416.54 372.71l-10.43 13.23c27.06-34.31 41.83-78.59 38.55-126.59A193.79 193.79 0 00426.23 189l10.44-13.23a194.19 194.19 0 0118.43 70.4c3.27 47.95-11.49 92.23-38.56 126.54z"/></clipPath><clipPath id="prefix__clip-path-2"><path id="prefix__SVGID-2" data-name="SVGID" class="prefix__cls-1" d="M95.84 141.54l10.43-13.23C139 86.79 189.78 59.84 248.35 58.52a199.94 199.94 0 0177.72 13.88l-10.43 13.23a199.94 199.94 0 00-77.72-13.88C179.34 73.07 128.59 100 95.84 141.54z"/></clipPath><clipPath id="prefix__clip-path-3"><path id="prefix__SVGID-3" data-name="SVGID" class="prefix__cls-1" d="M256.48 337.53L246 350.76c-1.74.19-3.48.31-5.3.35-40.57.92-75.64-31-78.39-71.19-.11-1.73-.15-3.46-.11-5.2l10.43-13.23c0 1.74 0 3.47.12 5.2 2.74 40.21 37.81 72.11 78.38 71.19 1.87-.04 3.61-.16 5.35-.35z"/></clipPath><clipPath id="prefix__clip-path-4"><path id="prefix__SVGID-4" data-name="SVGID" class="prefix__cls-1" d="M462.26 407.91l-10.43 13.23c-42.44 53.81-108.19 88.73-184 90.44C129.08 514.71 9.1 405.76-.28 268.27c-4.25-62.2 14.89-119.61 50-164.1l10.42-13.23C25.05 135.43 5.9 192.84 10.15 255c9.38 137.5 129.36 246.44 268.06 243.31 75.86-1.67 141.61-36.59 184.05-90.4z"/></clipPath><style>.prefix__cls-1{fill:none}.prefix__cls-2{isolation:isolate}.prefix__cls-3{fill:#7e451c}.prefix__cls-5{fill:#81471d}.prefix__cls-7{fill:#7d441c}.prefix__cls-8{fill:#eb8034}</style></defs><g class="prefix__cls-2"><path class="prefix__cls-3" d="M366.71 28.22l-10.43 13.23-40.64 44.18 10.43-13.23 40.64-44.18zM455.8 101.3l-10.43 13.23-137.98 150.13 10.44-13.23L455.8 101.3z"/><g class="prefix__cls-2"><g class="prefix__cls-2" clip-path="url(#prefix__clip-path)"><path class="prefix__cls-5" d="M416.54 372.71l-10.43 13.23c27.06-34.31 41.83-78.59 38.55-126.59A193.79 193.79 0 00426.23 189l10.44-13.23a194.19 194.19 0 0118.43 70.4c3.27 48-11.49 92.28-38.56 126.59"/></g></g><g class="prefix__cls-2"><g class="prefix__cls-2" clip-path="url(#prefix__clip-path-2)"><path class="prefix__cls-5" d="M326.07 72.4l-10.43 13.23a199.94 199.94 0 00-77.72-13.88C179.34 73.07 128.59 100 95.84 141.54l10.43-13.23C139 86.79 189.78 59.84 248.35 58.52a199.94 199.94 0 0177.72 13.88"/></g></g><path class="prefix__cls-7" d="M172.67 261.49l-10.43 13.23-81.85-74.27 10.44-13.23 81.84 74.27z"/><path class="prefix__cls-3" d="M394.53 350.69l-10.44 13.23-56.2 61.11 10.44-13.23 56.2-61.11z"/><path class="prefix__cls-7" d="M338.33 411.8l-10.44 13.23-81.85-74.27 10.44-13.23 81.85 74.27z"/><path class="prefix__cls-8" d="M400.62 51.3l55.18 50-138 150.13a68 68 0 011.85 11.95 73.19 73.19 0 01-1.06 18.43l75.91 68.88-56.2 61.11-81.85-74.27c-1.74.19-3.48.31-5.31.35-40.57.92-75.64-31-78.38-71.19-.12-1.73-.16-3.46-.12-5.2l-81.81-74.27 56.11-61.12 75.91 68.9a71 71 0 0118.38-2.78 75 75 0 0126.08 4.07z"/><g class="prefix__cls-2"><g class="prefix__cls-2" clip-path="url(#prefix__clip-path-3)"><path class="prefix__cls-5" d="M256.48 337.53L246 350.76c-1.74.19-3.48.31-5.3.35-40.57.92-75.64-31-78.39-71.19-.11-1.73-.15-3.46-.11-5.2l10.43-13.23c0 1.74 0 3.47.12 5.2 2.74 40.21 37.81 72.11 78.38 71.19 1.83 0 3.57-.16 5.31-.35"/></g></g><g class="prefix__cls-2"><g class="prefix__cls-2" clip-path="url(#prefix__clip-path-4)"><path class="prefix__cls-5" d="M462.26 407.91l-10.43 13.23c-42.44 53.81-108.19 88.73-184 90.44C129.08 514.71 9.1 405.76-.28 268.27c-4.25-62.2 14.89-119.61 50-164.1l10.42-13.23C25.05 135.43 5.9 192.84 10.15 255c9.38 137.5 129.36 246.44 268.06 243.31 75.86-1.71 141.61-36.63 184.05-90.44"/></g></g><path class="prefix__cls-8" d="M244.23.5a260 260 0 01122.48 27.72L326.07 72.4a199.94 199.94 0 00-77.72-13.88c-107 2.41-187.87 90.3-180.63 196.33s99.87 190 206.83 187.6 187.78-90.29 180.55-196.33a194.19 194.19 0 00-18.43-70.4l40.63-44.19a254.93 254.93 0 0135 112.2c9.38 137.49-95.46 251.5-234.07 254.62S19.53 392.54 10.15 255 105.53 3.63 244.23.5z"/></g></svg>