<svg version="1.1" id="prefix__Layer_1" xmlns="http://www.w3.org/2000/svg" x="0" y="0" viewBox="0 0 512 512" xml:space="preserve"><style>.prefix__st0{fill:#1d4650}.prefix__st1{fill:#f18d20}</style><path class="prefix__st0" d="M292.1 150.6c-18-77.7-90-126.2-168.9-113.9C53.7 47.6 0 110.3 0 180.7v139c0 9.7 2.6 12.4 12.3 12.4h73.2v-.4c23 0 45.9.7 68.9-.1 91.7-3.5 158.4-91.4 137.7-181zM147.6 296.9c-63.1-.5-113-51-113-114.3 0-62 51-113.1 113-113.1 61.9 0 113.2 50.8 113.2 112.2.1 64.4-50.4 115.7-113.2 115.2z"/><path class="prefix__st0" d="M511.9 464.7c0 9.4-3.1 12.4-12.6 12.4-44.9 0-89.8.2-134.7 0-72.8-.5-132.6-50.5-146.2-122.2-1.1-6-2.8-12.5-1.7-18.2 1.3-6.8 9.8-5.8 14.6-9.2 6.1-4.3 12.8-7.8 20-12.1-2.8 33.3 5.9 62.6 27.4 87.6 15.7 18.2 35.4 30.3 58.8 35.9 48.7 11.6 98.2-9.7 123.9-53 25.1-42.4 19.7-96.5-13.5-133.6-30.7-34.5-85.9-51.8-140.8-22.7 2.7-13.7 3.9-26.7 3.9-40.1 24.3-9.3 49.3-12.2 74.9-8.1 74.1 11.8 125.5 72.5 126 148.6.2 44.9 0 89.8 0 134.7z"/><path class="prefix__st1" d="M435.3 309.4c-6.2.7-9.6-1.1-11.5-7.6-1.2-4-1.3-6.4 1.9-8.9 3.1-2.3 6-4.9 8.6-7.1-9.9-9.8-18.6-18.4-28.1-27.7-2 2.3-4.6 5-6.8 7.9-2.7 3.5-5.3 3.2-9.4 1.9-6.5-2-8.1-5.6-7.3-11.6.3-2.6 0-5.3 0-8.4h-37.5c0 3.8-.3 7.4.1 11.1.4 4.4-1.5 6.1-5.3 8.1-6 3.2-9.8 1.9-13.4-3-1.7-2.3-3.3-4.6-4.5-6.2-9.9 9.8-18.6 18.4-28.1 27.8 2.6 2.3 5.3 5 8.5 7.3 5.9 4.3.8 8.3 0 12.5-.7 3.8-3.5 3.8-6.5 3.8-4 .1-8.1-.9-12 .8v36.3c3.8 1.2 7.3.8 10.7.6 4.7-.4 7 1.2 9 5.8 2.5 5.6 1.6 9.1-2.9 12.5-2.5 1.8-4.9 3.8-7 5.4 9.9 9.7 18.6 18.3 28.3 27.8 2.2-2.6 5.2-5.6 7.7-9.1 3.5-4.8 6.7-1.2 10.2-.2 3.5 1 5.7 2.4 5.5 6.7-.3 4.2-.7 8.5.5 13h36.9c0-4.6.4-8.8-.1-13-.8-7.1 5.6-5.7 8.8-8.1 2.8-2.2 4.7-.5 6.7 1.5 3.1 3.1 5.8 6.8 8.6 8.4 9.1-8.9 17.6-17.4 27.4-27-2.9-2.5-6.1-5.4-9.5-8-5.4-4.1-.1-7.6.5-11.4.6-3.6 2.8-4.3 6.2-4.3 4.2.1 8.5.8 12.7-.6v-36.3c-3.2-1.3-6.2-1.1-8.9-.7zm-71.4 61.9c-24.1 0-43-19.2-43-43.5 0-23.9 19.1-43.3 42.7-43.3 23.8 0 43.5 19.5 43.5 43.3.2 24-19.2 43.5-43.2 43.5z"/><path class="prefix__st0" d="M200.9 165.2c-9.9-.1-17.6 7.9-17.7 18.1 0 10.2 7.8 18.2 17.7 18.1 9.9-.1 17.9-8.2 18-18.1 0-9.8-8.2-18.1-18-18.1zm-50.9 0c-9.9-.1-17.9 7.9-18 18-.1 10 7.8 18.1 17.7 18.2 9.9.1 17.9-7.9 17.9-17.9 0-10.3-7.6-18.2-17.6-18.3zm-52.3 0c-10 .1-17.7 8.1-17.7 18.3.1 10 8.1 18 17.9 18 9.9-.1 17.7-8.2 17.7-18.2 0-10.2-8-18.3-17.9-18.1z"/><path class="prefix__st1" d="M80 183.4c-.1-10.1 7.7-18.2 17.7-18.3 9.9-.1 17.9 7.9 18 18 0 10.1-7.8 18.1-17.7 18.2-9.9.2-17.9-7.8-18-17.9zM167.6 183.4c0 10.1-8 18-17.9 17.9-9.9-.1-17.8-8.3-17.7-18.2.1-10.1 8.1-18.1 18-18 10 .2 17.6 8.1 17.6 18.3zM183.2 183.3c0-10.2 7.7-18.2 17.7-18.1 9.8.1 18 8.3 18 18.1-.1 9.9-8.1 18-18 18.1-9.9.1-17.7-7.9-17.7-18.1z"/></svg>