<svg width="16" height="16" viewBox="0 0 16 16" fill="none" xmlns="http://www.w3.org/2000/svg">
<rect x="1.5" y="1.5" width="13" height="13" rx="3.5" stroke="white"/>
<path fill-rule="evenodd" clip-rule="evenodd" d="M8.57845 3.84735C8.81359 3.98048 8.95893 4.2298 8.95893 4.5V10.75H9.85599C10.2702 10.75 10.606 11.0858 10.606 11.5C10.606 11.9142 10.2702 12.25 9.85599 12.25H6.15011C5.73589 12.25 5.40011 11.9142 5.40011 11.5C5.40011 11.0858 5.73589 10.75 6.15011 10.75H7.45893V5.82464L6.53598 6.37841C6.18079 6.59152 5.7201 6.47635 5.50699 6.12117C5.29388 5.76598 5.40905 5.30529 5.76424 5.09217L7.82306 3.85688C8.05476 3.71786 8.34332 3.71422 8.57845 3.84735Z" fill="white"/>
</svg>
