<svg width="16" height="16" fill="none" xmlns="http://www.w3.org/2000/svg"><path d="M.57 0v7.423h.564v.572h.575V16h.571V8h11.432v8h.572V8h.569V7.43h.57V0H.57zm14.285 6.853h-3.428l-.887.002H7.522c-.033 0-.067 0-.1-.002H1.148c-.017-.022-.01-.043-.01-.063V1.758l.001-.046V.572h13.715v.565l.001.094v5.622z" fill="#000"/><path d="M6.853 8h3.432v.57h-.568v.57h.567v.573h-.567v.57h.567v.573h-.567v.57h.567V12h-.567v.57h.567v.574h-.567v.57h.567v.573h-.567v.57h.567v.573h-.573V16H6.853V8.1 8z" fill="#606060"/><path d="M6.853 8l-.001.1V16H4.566V8.1 8h2.287zM11.427 8h1.14v8h-1.713v-.572h.567v-.572h-.567v-.571h.567v-.572h-.567v-.571h.567v-.572h-.567v-.572h.567v-.571h-.567v-.572h.567v-.571h-.567v-.572h.567v-.571h-.567v-.572h.573v-.57z" fill="#DDD"/><path d="M12.57 16V8.1 8h1.144v8h-1.145zM4.568 8v8H3.424V8.108c0-.036 0-.072-.002-.108h1.146z" fill="#606060"/><path d="M3.422 8l.002.108V16H2.28V8h1.142zM9.711 16v-.571l.572-.001V16h-.572z" fill="#DDD"/><path d="M10.283 16v-.572h.572V16h-.572zM11.427 6.853l-.887.002H7.522c-.033 0-.067 0-.1-.002v-.031V1.78c0-.022.007-.047-.011-.065H6.28V5.91l.002.942h-.575v-.1-5.507a.235.235 0 01.01-.107h9.136l.001.094V6.856h-.573v-.031-5.042c0-.022.008-.047-.01-.065h-1.703v.565h-.572v-.568h-.566v.567h.567v.572h-.567v.57h.567v.573h-.567v.57h.567v.574h-.567v.57h.567v.573h-.57v.569z" fill="#606060"/><path d="M14.854 1.137H5.72a.235.235 0 00-.01.107V6.85H3.424v-.1-5.507a.241.241 0 00-.007-.1.202.202 0 00-.092-.005L1.14 1.137V.572h13.714v.565z" fill="#DDD"/><path d="M12.57 2.283v-.567h1.702c.02.017.011.042.011.064V6.853h-1.712v-.57h.567V5.71h-.57V5.14h.568v-.572h-.567v-.572h.567v-.571h-.567v-.572h.567v-.571h-.567z" fill="#DDD"/><path d="M1.14 1.137l2.186.002a.198.198 0 01.09.007c.01.033.012.066.007.1V6.852H2.28v-.031-5.044a.096.096 0 00-.013-.067l-1.127.001.001-.575z" fill="#606060"/><path d="M1.14 1.712h1.126c.012.02.017.043.013.066v5.074h-1.13c-.018-.02-.012-.042-.012-.062V1.758l.002-.046zM6.283 6.853c0-.313 0-.627-.002-.942V1.715h1.132c.019.018.011.042.011.064v5.074H6.283zM11.427 6.853v-.57h.57l-.001.57h-.569z" fill="#DDD"/><path d="M11.996 6.853c0-.19 0-.38.002-.57h.573v.57h-.575z" fill="#606060"/><path d="M10.283 8.57V8h.568v.57h-.568z" fill="#DDD"/><path d="M10.854 8.569v-.57h.573v.57h-.573z" fill="#606060"/><path d="M10.283 9.14h-.567v-.57h.567v.572-.001zM10.283 9.713v-.572h.573v.572h-.573zM10.283 10.284h-.567v-.571h.567v.573-.002zM10.283 10.856v-.572h.573v.572h-.573zM10.283 11.427h-.567v-.57h.567v.572-.002zM10.283 12v-.573h.573v.572h-.573zM10.283 12.57h-.567V12h.567v.572-.002zM10.283 13.143v-.573h.573v.573h-.573zM10.283 13.713h-.567v-.57h.567v.572-.002zM10.283 14.286v-.573h.573v.573h-.573zM10.283 14.856h-.567v-.57h.567v.572-.002z" fill="#DDD"/><path d="M10.855 15.428h-.572l-.001-.573h.573v.573z" fill="#DDD"/><path d="M10.855 9.141h-.573V8.57h.573v.572z" fill="#606060"/><path d="M10.854 9.712v-.571h.567v.571h-.567zM10.855 10.285h-.573v-.573h.573v.573z" fill="#606060"/><path d="M10.854 10.855v-.571h.567v.571h-.567zM10.855 11.428h-.573v-.573h.573v.573z" fill="#606060"/><path d="M10.854 11.998v-.571h.567v.571h-.567zM10.855 12.57h-.573v-.572h.573v.573z" fill="#606060"/><path d="M10.854 13.143v-.573h.567v.573h-.567z" fill="#606060"/><path d="M10.855 13.714h-.573v-.572h.573v.572z" fill="#606060"/><path d="M10.854 14.285v-.572h.567v.572h-.567zM10.855 14.857h-.573v-.572h.573v.572z" fill="#606060"/><path d="M10.854 15.429v-.573h.567v.573h-.567z" fill="#606060"/><path d="M11.998 4.568h-.567v-.57h.567v.571-.001zM11.998 5.14v-.572h.572v.573h-.572zM11.998 5.711h-.567v-.57h.567v.57z" fill="#DDD"/><path d="M12.57 6.283h-.573V5.71h.572v.573zM11.998 3.997v-.572h.572v.572h-.572zM11.998 3.425h-.567v-.57h.567v.572-.002zM11.997 2.283h.572v.571h-.571l-.001-.571zM11.998 2.282h-.567v-.567h.566v.568-.001z" fill="#DDD"/><path d="M12.569 3.996v-.571h.567v.571h-.567zM11.997 3.996h.572v.573h-.571l-.001-.573zM12.569 5.14v-.572h.567v.572h-.567zM12.57 5.712h-.573V5.14h.572v.572z" fill="#606060"/><path d="M12.569 6.284V5.71h.567v.573h-.567zM11.997 2.853l.572.001v.572h-.572v-.573zM12.569 2.853v-.571h.567v.571h-.567z" fill="#606060"/></svg>