<svg fill="none" height="16" width="16" xmlns="http://www.w3.org/2000/svg"><path d="m.57 0v7.423h.564v.572h.575v8.005h.571v-8h11.432v8h.572v-8h.569v-.57h.57v-7.43zm14.285 6.853h-3.428l-.887.002h-3.018c-.033 0-.067 0-.1-.002h-6.274c-.017-.022-.01-.043-.01-.063v-5.032l.001-.046v-1.14h13.715v.565l.001.094z" fill="#000"/><path d="m6.853 8h3.432v.57h-.568v.57h.567v.573h-.567v.57h.567v.573h-.567v.57h.567v.574h-.567v.57h.567v.574h-.567v.57h.567v.573h-.567v.57h.567v.573h-.573v.57h-2.858z" fill="#606060"/><path d="m6.853 8-.001.1v7.9h-2.286v-8zm4.574 0h1.14v8h-1.713v-.572h.567v-.572h-.567v-.571h.567v-.572h-.567v-.571h.567v-.572h-.567v-.572h.567v-.571h-.567v-.572h.567v-.571h-.567v-.572h.567v-.571h-.567v-.572h.573v-.57z" fill="#ddd"/><path d="m12.57 16v-8h1.144v8h-1.145zm-8.002-8v8h-1.144v-7.892c0-.036 0-.072-.002-.108z" fill="#606060"/><path d="m3.422 8 .002.108v7.892h-1.144v-8zm6.289 8v-.571l.572-.001v.572z" fill="#ddd"/><path d="m10.283 16v-.572h.572v.572zm1.144-9.147-.887.002h-3.018c-.033 0-.067 0-.1-.002v-5.073c0-.022.007-.047-.011-.065h-1.131v4.195l.002.942h-.575v-5.607a.235.235 0 0 1 .01-.107h9.136l.001.094v5.624h-.573v-5.073c0-.022.008-.047-.01-.065h-1.703v.565h-.572v-.568h-.566v.567h.567v.572h-.567v.57h.567v.573h-.567v.57h.567v.574h-.567v.57h.567v.573h-.57z" fill="#606060"/><path d="m14.854 1.137h-9.134a.235.235 0 0 0 -.01.107v5.606h-2.286v-5.607a.241.241 0 0 0 -.007-.1.202.202 0 0 0 -.092-.005l-2.185-.001v-.565h13.714z" fill="#ddd"/><path d="m12.57 2.283v-.567h1.702c.02.017.011.042.011.064v5.073h-1.712v-.57h.567v-.573h-.57v-.57h.568v-.572h-.567v-.572h.567v-.571h-.567v-.572h.567v-.571h-.567z" fill="#ddd"/><path d="m1.14 1.137 2.186.002a.198.198 0 0 1 .09.007c.01.033.012.066.007.1v5.606h-1.143v-5.075a.096.096 0 0 0 -.013-.067l-1.127.001.001-.575z" fill="#606060"/><path d="m1.14 1.712h1.126c.012.02.017.043.013.066v5.074h-1.13c-.018-.02-.012-.042-.012-.062v-5.032l.002-.046zm5.143 5.141c0-.313 0-.627-.002-.942v-4.196h1.132c.019.018.011.042.011.064v5.074zm5.144 0v-.57h.57l-.001.57z" fill="#ddd"/><path d="m11.996 6.853c0-.19 0-.38.002-.57h.573v.57z" fill="#606060"/><path d="m10.283 8.57v-.57h.568v.57z" fill="#ddd"/><path d="m10.854 8.569v-.57h.573v.57z" fill="#606060"/><path d="m10.283 9.14h-.567v-.57h.567v.572-.001zm0 .573v-.572h.573v.572zm0 .571h-.567v-.571h.567v.573zm0 .572v-.572h.573v.572zm0 .571h-.567v-.57h.567v.572zm0 .573v-.573h.573v.572h-.573zm0 .57h-.567v-.57h.567v.572zm0 .573v-.573h.573v.573zm0 .57h-.567v-.57h.567v.572zm0 .573v-.573h.573v.573zm0 .57h-.567v-.57h.567v.572z" fill="#ddd"/><path d="m10.855 15.428h-.572l-.001-.573h.573z" fill="#ddd"/><g fill="#606060"><path d="m10.855 9.141h-.573v-.571h.573v.572z"/><path d="m10.854 9.712v-.571h.567v.571zm.001.573h-.573v-.573h.573z"/><path d="m10.854 10.855v-.571h.567v.571zm.001.573h-.573v-.573h.573z"/><path d="m10.854 11.998v-.571h.567v.571zm.001.572h-.573v-.572h.573v.573z"/><path d="m10.854 13.143v-.573h.567v.573z"/><path d="m10.855 13.714h-.573v-.572h.573z"/><path d="m10.854 14.285v-.572h.567v.572zm.001.572h-.573v-.572h.573z"/><path d="m10.854 15.429v-.573h.567v.573z"/></g><path d="m11.998 4.568h-.567v-.57h.567v.571zm0 .572v-.572h.572v.573h-.572zm0 .571h-.567v-.57h.567z" fill="#ddd"/><path d="m12.57 6.283h-.573v-.573h.572v.573zm-.572-2.286v-.572h.572v.572zm0-.572h-.567v-.57h.567v.572zm-.001-1.142h.572v.571h-.571zm.001-.001h-.567v-.567h.566v.568-.001z" fill="#ddd"/><path d="m12.569 3.996v-.571h.567v.571zm-.572 0h.572v.573h-.571zm.572 1.144v-.572h.567v.572zm.001.572h-.573v-.572h.572v.572z" fill="#606060"/><path d="m12.569 6.284v-.574h.567v.573h-.567zm-.572-3.431.572.001v.572h-.572zm.572 0v-.571h.567v.571z" fill="#606060"/></svg>