<svg width="16" height="16" fill="none" xmlns="http://www.w3.org/2000/svg"><path d="M12.626 3.063a6.702 6.702 0 00-4.63-1.837 6.767 6.767 0 00-.003 13.534h6.767V7.996a6.7 6.7 0 00-2.134-4.934zM5.225 4.61h5.537a.615.615 0 110 1.23H5.225a.615.615 0 110-1.23zm5.537 6.768H5.225a.616.616 0 010-1.232h5.537a.617.617 0 010 1.232zm2.46-3.382a.615.615 0 01-.615.615H3.383a.615.615 0 110-1.23h9.224a.615.615 0 01.615.615z" fill="#F27557"/><path d="M13.47 2.166A7.998 7.998 0 002.166 13.47a8.028 8.028 0 005.828 2.521h7.39a.617.617 0 00.616-.615v-7.38a8.028 8.028 0 00-2.53-5.83zm1.29 12.594H7.994a6.768 6.768 0 01-.432-13.52c.145 0 .292-.014.435-.014a6.77 6.77 0 016.763 6.77v6.764z" fill="#C34027"/><path d="M10.762 10.146H5.225a.618.618 0 00-.415 1.04.618.618 0 00.415.192h5.537a.617.617 0 000-1.232zM5.225 5.84h5.537a.615.615 0 100-1.23H5.225a.615.615 0 100 1.23zM3.38 7.38a.615.615 0 100 1.23h9.224a.615.615 0 000-1.23H3.38z" fill="#fff"/></svg>