<svg width="324" height="320" fill="none" xmlns="http://www.w3.org/2000/svg"><g filter="url(#prefix__filter0_d_163_513)"><g filter="url(#prefix__filter1_d_163_513)"><path d="M304.819 88c-2-14-4-32-26-48-20 34-40 38-84 40-32 0-64 0-94 12-26 12-50 32-62 60-6 14-10 30-6 46 0 6 4 12 6 18s6 14 16 20c10 10 30 18 40 22 32 10 68 8 98-4 70-24 122-88 112-166 0 6 0-6 0 0z" fill="#39B54A"/></g><g filter="url(#prefix__filter2_d_163_513)"><path d="M278.819 50c2 0 8 10 8 32 0 10 0 24-10 38s-26 24-44 30c-34 12-74 16-108 32s-64 46-84 82c-4 10-16 14-26 10s-14-18-8-28c16-32 46-68 86-88 40-22 84-26 118-30 18-2 32-6 42-14 10-6 16-18 18-28 6-20 6-36 8-36z" fill="#0D7A3D"/></g></g><defs><filter id="prefix__filter0_d_163_513" x="4" y="0" width="329" height="329" filterUnits="userSpaceOnUse" color-interpolation-filters="sRGB"><feFlood flood-opacity="0" result="BackgroundImageFix"/><feColorMatrix in="SourceAlpha" values="0 0 0 0 0 0 0 0 0 0 0 0 0 0 0 0 0 0 127 0" result="hardAlpha"/><feOffset dx="5" dy="5"/><feGaussianBlur stdDeviation="2"/><feComposite in2="hardAlpha" operator="out"/><feColorMatrix values="0 0 0 0 0 0 0 0 0 0 0 0 0 0 0 0 0 0 0.25 0"/><feBlend in2="BackgroundImageFix" result="effect1_dropShadow_163_513"/><feBlend in="SourceGraphic" in2="effect1_dropShadow_163_513" result="shape"/></filter><filter id="prefix__filter1_d_163_513" x="27.209" y="40" width="278.844" height="232.403" filterUnits="userSpaceOnUse" color-interpolation-filters="sRGB"><feFlood flood-opacity="0" result="BackgroundImageFix"/><feColorMatrix in="SourceAlpha" values="0 0 0 0 0 0 0 0 0 0 0 0 0 0 0 0 0 0 127 0" result="hardAlpha"/><feOffset dx="-4" dy="8"/><feComposite in2="hardAlpha" operator="out"/><feColorMatrix values="0 0 0 0 0.0509804 0 0 0 0 0.478431 0 0 0 0 0.239216 0 0 0 1 0"/><feBlend in2="BackgroundImageFix" result="effect1_dropShadow_163_513"/><feBlend in="SourceGraphic" in2="effect1_dropShadow_163_513" result="shape"/></filter><filter id="prefix__filter2_d_163_513" x="0" y="50" width="286.819" height="233.533" filterUnits="userSpaceOnUse" color-interpolation-filters="sRGB"><feFlood flood-opacity="0" result="BackgroundImageFix"/><feColorMatrix in="SourceAlpha" values="0 0 0 0 0 0 0 0 0 0 0 0 0 0 0 0 0 0 127 0" result="hardAlpha"/><feOffset dx="-4" dy="8"/><feComposite in2="hardAlpha" operator="out"/><feColorMatrix values="0 0 0 0 0.0318846 0 0 0 0 0.332708 0 0 0 0 0.164357 0 0 0 1 0"/><feBlend in2="BackgroundImageFix" result="effect1_dropShadow_163_513"/><feBlend in="SourceGraphic" in2="effect1_dropShadow_163_513" result="shape"/></filter></defs></svg>