<svg width="16" height="16" fill="none" xmlns="http://www.w3.org/2000/svg"><g clip-path="url(#prefix__clip0_723_31)" stroke-width="2" stroke-linecap="round" stroke-linejoin="round"><path d="M4.063 1.875H1.874v12.25h5.688m-3.5-12.25v3.938h6.125V1.874m-6.126 0h6.125m0 0h.438l3.5 2.625v3.063M8.437 8.874H7.125v1.75" stroke="url(#prefix__paint0_linear_723_31)"/><path d="M12.225 12.225c1.046-1.047.966-2.534 0-3.5a2.475 2.475 0 10-3.5 3.5c.966.966 2.4 1.1 3.5 0zm0 0l1.75 1.75" stroke="url(#prefix__paint1_linear_723_31)"/></g><defs><linearGradient id="prefix__paint0_linear_723_31" x1="8" y1="1.875" x2="8" y2="14.125" gradientUnits="userSpaceOnUse"><stop stop-color="#fff"/></linearGradient><linearGradient id="prefix__paint1_linear_723_31" x1="10.987" y1="8" x2="10.987" y2="13.975" gradientUnits="userSpaceOnUse"><stop stop-color="#fff"/></linearGradient><clipPath id="prefix__clip0_723_31"><path fill="#fff" transform="translate(1 1)" d="M0 0h14v14H0z"/></clipPath></defs></svg>