<svg width="16" height="16" fill="none" xmlns="http://www.w3.org/2000/svg"><path fill-rule="evenodd" clip-rule="evenodd" d="M4.625 2.086c-.484.14-1.099.776-1.242 1.286-.065.229-.266 1.636-.448 3.128a222.03 222.03 0 01-.396 3.126l-.064.415h.887c.75 0 .896-.03.943-.194.03-.106.19-1.364.355-2.794.174-1.501.365-2.706.453-2.85.186-.303.492-.32.743-.042.176.194.167.364-.149 2.862-.184 1.46-.335 2.737-.335 2.837 0 .164.377.181 4.1.181h4.1l-.062-.36c-.034-.197-.21-1.58-.39-3.07-.182-1.492-.385-2.907-.452-3.145-.171-.607-.512-1.025-1.044-1.283-.425-.205-.673-.22-3.548-.211-1.7.006-3.253.057-3.45.114zm-3.314 9.218c-.296.255-.311.313-.311 1.227 0 .915.015.973.31 1.227l.311.267h12.836l.271-.271c.247-.247.272-.36.272-1.223 0-.862-.025-.976-.272-1.222l-.271-.272H1.62l-.31.267z" fill="#fff"/></svg>