<svg width="16" height="16" fill="none" xmlns="http://www.w3.org/2000/svg"><path fill-rule="evenodd" clip-rule="evenodd" d="M9.214.955c-.488.489-.556.658-.556 1.4 0 .464.077.986.17 1.16.093.174.147.316.121.316-.026 0-.302-.073-.612-.162-.443-.127-.84-.088-1.837.181-.7.189-1.272.412-1.272.495 0 .084-.285.734-.634 1.445-.348.711-.594 1.333-.544 1.382.31.31.888.016 1.593-.81.712-.833 1.391-1.175 1.375-.693-.004.112-.216 1.111-.47 2.22-.46 2-.472 2.025-1.341 2.913-.483.493-1.083 1.044-1.333 1.225l-.455.33-1.179-.883A38.865 38.865 0 00.861 10.47c-.252-.15-.861.163-.861.444 0 .335 2.764 3.786 2.985 3.727.11-.03 1.238-.485 2.507-1.012 1.269-.527 2.864-1.1 3.546-1.275l1.24-.318.7 1.778c.65 1.644.735 1.777 1.142 1.778.376 0 .446-.075.49-.53.042-.437-.484-4.512-.601-4.66-.02-.024-.645-.15-1.39-.282-.745-.13-1.39-.273-1.432-.316-.073-.073 1.077-3.196 1.177-3.196.026 0 .581.22 1.235.49.654.27 1.288.49 1.41.49.121 0 .737-.698 1.367-1.552.63-.853 1.211-1.552 1.29-1.552.137 0 .416-.807.311-.897a2.093 2.093 0 00-.381-.144c-.251-.077-.672.175-1.716 1.026-1.52 1.242-1.43 1.23-2.606.343l-.385-.29.516-.267c1.263-.653 1.356-2.762.159-3.6-.2-.14-.686-.255-1.08-.255-.595 0-.808.093-1.27.555z" fill="#fff"/></svg>