<svg fill="none" height="16" width="16" xmlns="http://www.w3.org/2000/svg"><path d="m14.33 2.964a.929.929 0 0 0 -1.517-1.07zm-6.33 7.357-.705.605a.929.929 0 0 0 1.464-.07l-.76-.535zm-2.08-3.854a.929.929 0 0 0 -1.41 1.209zm3.937-3.11a.929.929 0 0 0 0-1.857zm4.643 2.786a.929.929 0 1 0 -1.857 0zm-1.687-4.25-5.573 7.893 1.518 1.07 5.571-7.892-1.517-1.07zm-4.108 7.824-2.786-3.25-1.41 1.209 2.786 3.25zm-4.685-6.36h5.837v-1.857h-5.837zm8.623 2.786v5.837h1.857v-5.837zm-.664 6.5h-7.959v1.857h7.96v-1.857zm-8.622-.663v-7.96h-1.857v7.96zm.663.663a.663.663 0 0 1 -.663-.663h-1.857a2.52 2.52 0 0 0 2.52 2.52zm8.623-.663a.663.663 0 0 1 -.664.663v1.857a2.52 2.52 0 0 0 2.52-2.52zm-8.623-10.48a2.52 2.52 0 0 0 -2.52 2.52h1.857c0-.366.297-.663.663-.663z" fill="#fff"/></svg>