<svg width="16" height="16" fill="none" xmlns="http://www.w3.org/2000/svg"><path d="M14.33 2.964a.929.929 0 00-1.517-1.07l1.517 1.07zM8 10.321l-.705.605a.929.929 0 001.464-.07l-.76-.535zM5.92 6.467a.929.929 0 00-1.41 1.209l1.41-1.209zm3.937-3.11a.929.929 0 000-1.857v1.857zM14.5 6.143a.929.929 0 10-1.857 0H14.5zm-1.687-4.25L7.24 9.786l1.518 1.07 5.571-7.892-1.517-1.07zM8.705 9.717l-2.786-3.25-1.41 1.209 2.786 3.25 1.41-1.209zM4.02 3.357h5.837V1.5H4.02v1.857zm8.623 2.786v5.837H14.5V6.143h-1.857zm-.664 6.5H4.02V14.5h7.96v-1.857zm-8.622-.663V4.02H1.5v7.96h1.857zm.663.663a.663.663 0 01-.663-.663H1.5a2.52 2.52 0 002.52 2.52v-1.857zm8.623-.663a.663.663 0 01-.664.663V14.5a2.52 2.52 0 002.52-2.52h-1.856zM4.02 1.5A2.52 2.52 0 001.5 4.02h1.857c0-.366.297-.663.663-.663V1.5z" fill="#fff"/></svg>