<svg width="16" height="16" fill="none" xmlns="http://www.w3.org/2000/svg"><path d="M10.78 2.625a1 1 0 10-1.56-1.25l1.56 1.25zM6 7l-.707.707a1 1 0 001.488-.082L6 7zm-.793-2.207a1 1 0 00-1.414 1.414l1.414-1.414zM7 3a1 1 0 100-2v2zm4 2a1 1 0 10-2 0h2zm2 1.25v6.5h2v-6.5h-2zM12.75 13h-6.5v2h6.5v-2zM12 6h.75V4H12v2zm-6 6.75V12H4v.75h2zm.25.25a.25.25 0 01-.25-.25H4A2.25 2.25 0 006.25 15v-2zm6.75-.25a.25.25 0 01-.25.25v2A2.25 2.25 0 0015 12.75h-2zm2-6.5A2.25 2.25 0 0012.75 4v2a.25.25 0 01.25.25h2zM9.22 1.375l-4 5 1.56 1.25 4-5-1.56-1.25zM6.706 6.293l-1.5-1.5-1.414 1.414 1.5 1.5 1.414-1.414zM3.143 3H7V1H3.143v2zM9 5v3.857h2V5H9zm-.143 4H3.143v2h5.714V9zM3 8.857V3.143H1v5.714h2zM3.143 9A.143.143 0 013 8.857H1C1 10.041 1.96 11 3.143 11V9zM9 8.857A.143.143 0 018.857 9v2C10.041 11 11 10.04 11 8.857H9zM3.143 1C1.959 1 1 1.96 1 3.143h2C3 3.064 3.064 3 3.143 3V1z" fill="#fff"/></svg>