<svg width="16" height="16" fill="none" xmlns="http://www.w3.org/2000/svg"><path d="M10.582 3.009a.929.929 0 00-1.45-1.16l1.45 1.16zM6.142 7.07l-.656.657a.929.929 0 001.382-.076l-.725-.58zm-.735-2.049a.929.929 0 00-1.314 1.313l1.314-1.313zM7.07 3.357a.929.929 0 000-1.857v1.857zm3.715 1.857a.929.929 0 10-1.857 0h1.857zm1.857 1.161v6.036H14.5V6.375h-1.857zm-.232 6.268H6.375V14.5h6.036v-1.857zm-.697-6.5h.697V4.286h-.697v1.857zM6.143 12.41v-.697H4.286v.697h1.857zm.232.232a.232.232 0 01-.232-.232H4.286A2.09 2.09 0 006.375 14.5v-1.857zm6.268-.232a.232.232 0 01-.232.232V14.5a2.09 2.09 0 002.089-2.09h-1.857zM14.5 6.375a2.09 2.09 0 00-2.09-2.09v1.858c.129 0 .233.104.233.232H14.5zM9.132 1.849L5.418 6.49l1.45 1.16 3.714-4.642-1.45-1.16zM6.799 6.415L5.407 5.022 4.093 6.335l1.393 1.393L6.8 6.415zM3.49 3.357h3.582V1.5H3.49v1.857zm5.44 1.857v3.582h1.857V5.214H8.929zM8.796 8.93H3.49v1.857h5.306V8.929zm-5.439-.133V3.49H1.5v5.306h1.857zm.133.133a.133.133 0 01-.133-.133H1.5c0 1.099.89 1.99 1.99 1.99V8.929zm5.439-.133c0 .073-.06.133-.133.133v1.857a1.99 1.99 0 001.99-1.99H8.929zM3.489 1.5A1.99 1.99 0 001.5 3.49h1.857c0-.073.06-.133.133-.133V1.5z" fill="#fff"/></svg>