<svg width="16" height="16" fill="none" xmlns="http://www.w3.org/2000/svg"><rect x="1.5" y="1.5" width="13" height="13" rx="3.5" stroke="#fff"/><path fill-rule="evenodd" clip-rule="evenodd" d="M8.005 5.025c-.596 0-1.16.298-1.337.69a.637.637 0 11-1.16-.53c.46-1.01 1.614-1.435 2.497-1.435h.001A2.548 2.548 0 0110.55 6.3h-.637.637c0 .73-.358 1.31-.849 1.7.49.39.849.97.85 1.7a2.547 2.547 0 01-2.545 2.55c-.88 0-2.045-.415-2.5-1.441a.637.637 0 111.164-.518c.173.388.73.684 1.335.684a1.273 1.273 0 001.27-1.274V9.7c0-.288-.138-.535-.407-.732a1.87 1.87 0 00-1.08-.33.637.637 0 110-1.276 1.87 1.87 0 001.08-.33c.269-.197.407-.444.407-.732a1.273 1.273 0 00-1.27-1.275zm2.545 4.674V9.7h-.637.637z" fill="#fff"/></svg>