<svg width="16" height="16" fill="none" xmlns="http://www.w3.org/2000/svg"><rect x="1.5" y="1.5" width="13" height="13" rx="3.5" stroke="#fff"/><path d="M6.417 6.722H5.27V5.336c.404-.088.81-.173 1.22-.261L6.826 3h1.81c.008.098.003.193.005.29v1.785h2.079v1.644H8.656c-.022.035-.015.064-.015.09v3.796c0 .09.015.178.042.264a.5.5 0 00.355.347c.07.022.14.034.214.034H10.702c.025.017.02.04.02.056 0 .428 0 .858.003 1.286 0 .054-.025.073-.069.093-.364.149-.738.254-1.132.293a4.119 4.119 0 01-1.765-.195 2.05 2.05 0 01-.848-.538 1.795 1.795 0 01-.448-.907 2.804 2.804 0 01-.048-.533V6.832c.002-.032.002-.064.002-.11z" fill="#fff"/></svg>