<svg width="16" height="16" fill="none" xmlns="http://www.w3.org/2000/svg"><rect x="1.5" y="1.5" width="13" height="13" rx="3.5" stroke="#fff"/><path fill-rule="evenodd" clip-rule="evenodd" d="M7.994 3.75A2.552 2.552 0 0110.55 6.3c0 .158-.041.305-.08.412-.04.116-.095.235-.155.352-.12.234-.284.5-.47.778-.372.558-.861 1.21-1.343 1.826-.368.47-.736.925-1.05 1.307h2.46a.637.637 0 110 1.275H6.089a.637.637 0 01-.485-1.052l.01-.013.032-.036a47.131 47.131 0 00.55-.654c.356-.43.83-1.008 1.303-1.613a30.31 30.31 0 001.286-1.747c.174-.26.308-.481.397-.654a1.641 1.641 0 00.094-.212 1.277 1.277 0 00-2.454-.457c-.064.155-.096.32-.096.487a.638.638 0 01-1.275.002A2.547 2.547 0 017.994 3.75z" fill="#fff"/></svg>